<svg width="1080" height="461" viewBox="0 0 1080 461" fill="none" xmlns="http://www.w3.org/2000/svg">
<g clip-path="url(#clip0_231_2)">
<rect width="1080" height="461" fill="white"/>
<path d="M455.999 -14.0565L502.901 -33.484C506.821 -35.1078 511.226 -35.1078 515.147 -33.4839L562.049 -14.0565C565.969 -12.4326 569.084 -9.31785 570.708 -5.3974L590.135 41.5045C591.759 45.425 591.759 49.8299 590.135 53.7504L570.708 100.652C569.084 104.573 565.969 107.688 562.049 109.311L515.147 128.739C511.226 130.363 506.821 130.363 502.901 128.739L455.999 109.311C452.078 107.688 448.964 104.573 447.34 100.652L427.912 53.7504C426.288 49.8299 426.288 45.425 427.912 41.5045L447.34 -5.39741C448.964 -9.31785 452.078 -12.4326 455.999 -14.0565Z" stroke="#FF4C29" stroke-width="4"/>
<path d="M251.682 378.538L361.788 408.041C367.737 409.635 369.729 417.071 365.375 421.426L284.771 502.029C280.417 506.384 272.981 504.391 271.387 498.443L241.884 388.336C240.29 382.388 245.733 376.945 251.682 378.538Z" stroke="#0E6EFF" stroke-width="4"/>
<path d="M1007.18 96.5389L1117.29 126.042C1123.24 127.636 1125.23 135.071 1120.87 139.426L1040.27 220.029C1035.92 224.384 1028.48 222.392 1026.89 216.443L997.384 106.337C995.79 100.388 1001.23 94.945 1007.18 96.5389Z" stroke="#0E6EFF" stroke-width="4"/>
<path d="M-24.8378 241.443L60.4467 227.935C63.8699 227.393 67.2528 229.117 68.8263 232.205L108.027 309.141C109.601 312.229 109.007 315.979 106.556 318.43L45.4991 379.487C43.0484 381.938 39.2983 382.532 36.2103 380.958L-40.726 341.757C-43.8141 340.184 -45.5378 336.801 -44.9956 333.378L-31.4879 248.093C-30.9457 244.67 -28.261 241.985 -24.8378 241.443Z" stroke="#0E9F6E" stroke-width="4"/>
<path d="M935.753 385.552L1023.53 334.873C1027.36 332.664 1032.25 333.975 1034.46 337.801L1085.14 425.579C1087.35 429.406 1086.04 434.298 1082.21 436.507L994.431 487.186C990.605 489.395 985.712 488.084 983.503 484.258L932.825 396.48C930.616 392.654 931.927 387.761 935.753 385.552Z" stroke="#0E9F6E" stroke-width="4"/>
<circle cx="127.976" cy="29.4457" r="91.1593" stroke="#FFB600" stroke-width="4"/>
<circle cx="723.54" cy="461" r="91.1593" stroke="#FFB600" stroke-width="4"/>
<path d="M883.548 -17.297C895.945 -10.1396 904.991 1.64927 908.696 15.4762C912.401 29.3032 910.461 44.0357 903.304 56.4326C896.147 68.8295 884.358 77.8754 870.531 81.5804C856.704 85.2853 841.971 83.3457 829.574 76.1884" stroke="#0E9F6E" stroke-width="4" stroke-linecap="round" stroke-linejoin="round"/>
</g>
<defs>
<clipPath id="clip0_231_2">
<rect width="1080" height="461" fill="white"/>
</clipPath>
</defs>
</svg>
