<svg width="369" height="86" viewBox="0 0 369 86" fill="none" xmlns="http://www.w3.org/2000/svg">
<path d="M107.438 35.507V50.4836C107.438 51.9367 107.508 53.132 107.649 54.0695C107.79 54.9601 108.094 55.6632 108.563 56.1789C109.032 56.7414 109.711 57.1164 110.602 57.3039C111.54 57.4914 112.758 57.5851 114.258 57.5851V60.1867C113.321 60.1398 111.915 60.1164 110.04 60.1164C108.211 60.0695 106.266 60.0461 104.204 60.0461C102.188 60.0461 100.266 60.0695 98.438 60.1164C96.6099 60.1164 95.2505 60.1398 94.3599 60.1867V57.6554C95.7661 57.6554 96.9146 57.5851 97.8052 57.4445C98.6958 57.3039 99.3755 56.9992 99.8442 56.5304C100.313 56.0148 100.618 55.2882 100.758 54.3507C100.946 53.4132 101.04 52.1242 101.04 50.4836V16.382C101.04 14.9757 100.946 13.8507 100.758 13.007C100.571 12.1632 100.243 11.507 99.7739 11.0382C99.3052 10.6164 98.6255 10.3351 97.7349 10.1945C96.8911 10.0539 95.7661 9.96011 94.3599 9.91324V7.31168C95.4849 7.35855 96.9614 7.40543 98.7896 7.4523C100.618 7.4523 102.516 7.4523 104.485 7.4523C106.5 7.4523 108.446 7.4523 110.321 7.4523C112.243 7.40543 113.836 7.35855 115.102 7.31168C118.43 7.31168 121.172 7.78043 123.329 8.71793C125.485 9.60855 127.172 10.7336 128.391 12.0929C129.61 13.4523 130.454 14.9289 130.922 16.5226C131.438 18.0695 131.696 19.4992 131.696 20.8117C131.696 22.4992 131.391 24.0695 130.782 25.5226C130.219 26.9757 129.469 28.2648 128.532 29.3898C127.594 30.5148 126.516 31.4757 125.297 32.2726C124.079 33.0695 122.813 33.6554 121.5 34.0304C122.344 35.5304 123.329 37.1711 124.454 38.9523C125.625 40.6867 126.821 42.3976 128.04 44.0851C129.211 45.8195 130.36 47.4367 131.485 48.9367C132.657 50.4367 133.688 51.7023 134.579 52.7336C135.563 53.9992 136.735 55.1242 138.094 56.1086C139.454 57.0929 141.118 57.5851 143.086 57.5851V60.1867C141.399 60.0929 139.477 60.0461 137.321 60.0461C135.165 60.0461 133.336 60.0929 131.836 60.1867C130.524 58.4523 129.141 56.5304 127.688 54.4211C126.235 52.3117 124.758 50.1554 123.258 47.9523C121.805 45.7492 120.375 43.5695 118.969 41.4132C117.563 39.257 116.297 37.2882 115.172 35.507H107.438ZM107.438 32.2023C107.438 32.2023 107.602 32.2257 107.93 32.2726C108.258 32.2726 108.633 32.2726 109.055 32.2726C109.524 32.3195 109.993 32.3429 110.461 32.3429C110.977 32.3429 111.422 32.3429 111.797 32.3429C114.188 32.3429 116.204 32.0148 117.844 31.3586C119.532 30.7023 120.891 29.8586 121.922 28.8273C122.954 27.7492 123.68 26.5773 124.102 25.3117C124.571 23.9992 124.805 22.6867 124.805 21.3742C124.805 18.2336 123.868 15.6086 121.993 13.4992C120.165 11.3898 116.93 10.3351 112.29 10.3351C111.211 10.3351 110.297 10.3586 109.547 10.4054C108.844 10.4054 108.141 10.4523 107.438 10.5461V32.2023Z" fill="#504B3A"/>
<path d="M169.679 43.5226C164.991 44.6945 161.616 45.9367 159.554 47.2492C157.491 48.5148 156.46 50.132 156.46 52.1007C156.46 54.1164 156.905 55.4523 157.796 56.1086C158.686 56.7648 159.975 57.0929 161.663 57.0929C163.116 57.0929 164.569 56.6476 166.022 55.757C167.522 54.8195 168.741 53.8351 169.679 52.8039V43.5226ZM181.913 57.0929C180.882 58.0773 179.733 59.0382 178.468 59.9757C177.249 60.8664 175.89 61.3117 174.39 61.3117C172.983 61.3117 171.858 60.8429 171.015 59.9054C170.218 58.9211 169.796 57.8664 169.749 56.7414C168.765 57.7726 167.265 58.8039 165.249 59.8351C163.28 60.8195 161.03 61.3117 158.499 61.3117C156.108 61.3117 154.14 60.5851 152.593 59.132C151.046 57.6789 150.319 55.8507 150.413 53.6476C150.46 51.8195 150.999 50.2726 152.03 49.007C153.061 47.7414 154.444 46.6164 156.179 45.632C157.913 44.6476 159.929 43.7804 162.225 43.0304C164.569 42.2804 167.054 41.507 169.679 40.7101V36.1398C169.679 34.1711 169.21 32.6007 168.272 31.4289C167.382 30.257 165.788 29.6711 163.491 29.6711C161.804 29.6711 160.35 30.1632 159.132 31.1476C157.913 32.132 157.28 33.3976 157.233 34.9445C157.233 36.1164 156.929 37.007 156.319 37.6164C155.757 38.2257 154.983 38.5304 153.999 38.5304C153.015 38.5304 152.335 38.2726 151.96 37.757C151.585 37.1945 151.397 36.4914 151.397 35.6476C151.397 34.2882 151.983 33.0461 153.155 31.9211C154.327 30.7492 156.366 29.3898 159.272 27.8429C160.819 26.9992 162.085 26.3898 163.069 26.0148C164.1 25.5929 165.272 25.382 166.585 25.382C169.116 25.382 171.272 26.1086 173.054 27.5617C174.835 28.9679 175.725 31.007 175.725 33.6789V52.6632C175.725 55.1007 176.124 56.4367 176.921 56.6711C177.765 56.9054 179.265 56.2726 181.421 54.7726L181.913 57.0929Z" fill="#504B3A"/>
<path d="M200.349 25.382C200.208 26.6476 200.115 27.7257 200.068 28.6164C200.021 29.507 199.997 30.2804 199.997 30.9367C201.075 30.1867 202.107 29.4836 203.091 28.8273C204.075 28.1242 205.083 27.5148 206.115 26.9992C207.099 26.4836 208.13 26.0851 209.208 25.8039C210.286 25.4757 211.435 25.3117 212.654 25.3117C215.888 25.3117 218.138 26.3664 219.404 28.4757C220.669 30.5851 221.302 33.1398 221.302 36.1398V52.5929C221.302 54.4679 221.607 55.7804 222.216 56.5304C222.872 57.2336 224.279 57.5851 226.435 57.5851V60.1164C225.779 60.1164 224.7 60.1164 223.2 60.1164C221.7 60.1164 220.107 60.1164 218.419 60.1164C216.732 60.1164 215.138 60.1398 213.638 60.1867C212.138 60.1867 211.083 60.1867 210.474 60.1867V57.5851C212.49 57.5851 213.779 57.2336 214.341 56.5304C214.95 55.7804 215.255 54.4679 215.255 52.5929V36.0695C215.255 33.8195 214.74 32.2257 213.708 31.2882C212.724 30.3507 211.154 29.882 208.997 29.882C208.388 29.9289 207.661 30.0929 206.818 30.3742C206.021 30.6554 205.2 31.0304 204.357 31.4992C203.513 31.9211 202.693 32.3898 201.896 32.9054C201.146 33.4211 200.513 33.8898 199.997 34.3117V52.5929C199.997 54.4679 200.302 55.7804 200.911 56.5304C201.521 57.2336 202.927 57.5851 205.13 57.5851V60.1867C204.427 60.1398 203.325 60.1164 201.825 60.1164C200.325 60.0695 198.732 60.0461 197.044 60.0461C195.357 60.0461 193.763 60.0695 192.263 60.1164C190.763 60.1164 189.708 60.1398 189.099 60.1867V57.5851C191.161 57.5851 192.474 57.2336 193.036 56.5304C193.646 55.7804 193.95 54.4679 193.95 52.5929V36.2804C193.95 33.9836 193.74 32.5304 193.318 31.9211C192.896 31.2648 191.747 30.9367 189.872 30.9367V28.757C191.372 28.5226 192.779 28.1476 194.091 27.632C195.404 27.1164 196.599 26.3664 197.677 25.382H200.349Z" fill="#504B3A"/>
<path d="M240.3 59.0617C237.91 58.0304 236.363 56.7648 235.66 55.2648C235.004 53.7648 234.886 52.1711 235.308 50.4836C236.293 49.9211 237.23 49.3586 238.121 48.7961C239.058 48.1867 239.832 47.6007 240.441 47.0382C238.613 46.0539 237.136 44.8351 236.011 43.382C234.886 41.882 234.324 39.8195 234.324 37.1945C234.324 33.8664 235.496 31.0539 237.84 28.757C240.183 26.4601 243.675 25.3117 248.316 25.3117C249.535 25.3117 250.683 25.4289 251.761 25.6632C252.886 25.8507 253.918 26.0617 254.855 26.2961C255.793 26.6242 256.824 26.9289 257.949 27.2101C259.121 27.4914 260.457 27.632 261.957 27.632C262.379 27.632 262.754 27.632 263.082 27.632C263.41 27.632 263.715 27.6086 263.996 27.5617C264.09 27.5617 264.207 27.5617 264.347 27.5617C264.488 27.5617 264.652 27.5382 264.84 27.4914C265.027 27.4914 265.238 27.4679 265.472 27.4211C265.707 27.3742 265.988 27.3273 266.316 27.2804V31.4289L259.566 31.1476C259.894 31.6164 260.199 32.3664 260.48 33.3976C260.761 34.4289 260.902 35.507 260.902 36.632C260.902 40.382 259.636 43.3117 257.105 45.4211C254.574 47.4836 251.246 48.5148 247.121 48.5148C246.84 48.5148 246.535 48.5382 246.207 48.5851C245.925 48.5851 245.644 48.5617 245.363 48.5148C245.082 48.5148 244.777 48.5148 244.449 48.5148C244.168 48.4679 243.863 48.3976 243.535 48.3039C242.644 48.7726 242.011 49.2882 241.636 49.8507C241.308 50.4132 241.144 51.0226 241.144 51.6789C241.144 52.9914 241.543 53.9054 242.34 54.4211C243.136 54.8898 244.355 55.1242 245.996 55.1242C246.886 55.1242 247.73 55.1476 248.527 55.1945C249.371 55.1945 250.215 55.1945 251.058 55.1945C251.855 55.1945 252.629 55.1945 253.379 55.1945C254.129 55.1945 254.902 55.1945 255.699 55.1945C258.84 55.1945 261.418 55.8976 263.433 57.3039C265.449 58.6632 266.457 60.8195 266.457 63.7726C266.457 65.5539 265.941 67.2414 264.91 68.8351C263.879 70.4289 262.496 71.8351 260.761 73.0539C258.98 74.3195 256.894 75.3273 254.504 76.0773C252.113 76.8273 249.535 77.2023 246.769 77.2023C244.379 77.2023 242.293 76.8976 240.511 76.2882C238.73 75.7257 237.254 74.9992 236.082 74.1086C234.91 73.2179 234.043 72.2336 233.48 71.1554C232.918 70.0773 232.636 68.9992 232.636 67.9211C232.636 65.7648 233.34 63.9367 234.746 62.4367C236.199 60.9836 238.05 59.8586 240.3 59.0617ZM240.863 36.4211C240.863 38.9523 241.425 41.1554 242.55 43.0304C243.722 44.8586 245.433 45.7726 247.683 45.7726C250.215 45.7726 252.043 44.9523 253.168 43.3117C254.293 41.6242 254.855 39.6554 254.855 37.4054C254.855 36.3742 254.691 35.2961 254.363 34.1711C254.082 33.0461 253.636 32.0382 253.027 31.1476C252.465 30.2101 251.715 29.4601 250.777 28.8976C249.84 28.2882 248.738 27.9836 247.472 27.9836C246.3 27.9836 245.293 28.2648 244.449 28.8273C243.652 29.3429 242.972 29.9992 242.41 30.7961C241.894 31.6398 241.496 32.5539 241.215 33.5382C240.98 34.5226 240.863 35.4836 240.863 36.4211ZM238.191 66.8664C238.191 69.257 239.129 71.0382 241.004 72.2101C242.925 73.4289 245.222 74.0382 247.894 74.0382C249.675 74.0382 251.34 73.8507 252.886 73.4757C254.48 73.1007 255.863 72.5617 257.035 71.8586C258.207 71.1554 259.121 70.3117 259.777 69.3273C260.48 68.3429 260.832 67.2179 260.832 65.9523C260.832 63.7023 259.777 62.1554 257.668 61.3117C255.605 60.5148 253.168 60.1164 250.355 60.1164C246.324 60.1164 243.277 60.7257 241.215 61.9445C239.199 63.2101 238.191 64.8507 238.191 66.8664Z" fill="#504B3A"/>
<path d="M299.025 55.6164C296.775 57.4445 294.69 58.8507 292.768 59.8351C290.893 60.8195 288.666 61.3117 286.088 61.3117C285.104 61.3117 284.119 61.1476 283.135 60.8195C282.15 60.4914 281.26 59.9523 280.463 59.2023C279.666 58.4523 279.01 57.5148 278.494 56.3898C278.025 55.2179 277.791 53.7882 277.791 52.1007V32.8351C277.791 31.3351 277.51 30.3742 276.947 29.9523C276.432 29.5304 275.26 29.2492 273.432 29.1086V26.9289C274.697 26.9289 276.338 26.8586 278.354 26.7179C280.369 26.5773 282.291 26.4367 284.119 26.2961C284.025 27.2336 283.955 28.382 283.908 29.7414C283.861 31.1007 283.838 32.132 283.838 32.8351V48.3039C283.838 51.8664 284.236 54.1632 285.033 55.1945C285.877 56.2257 287.19 56.7414 288.971 56.7414C290.424 56.7414 292.111 56.3195 294.033 55.4757C296.002 54.632 297.69 53.507 299.096 52.1007V32.8351C299.096 31.382 298.721 30.4445 297.971 30.0226C297.221 29.5539 295.908 29.2492 294.033 29.1086V26.9289C295.252 26.9289 296.986 26.8586 299.236 26.7179C301.533 26.5773 303.596 26.4367 305.424 26.2961C305.33 27.2336 305.26 28.382 305.213 29.7414C305.166 31.1007 305.143 32.132 305.143 32.8351V54.4914C305.143 55.757 305.447 56.507 306.057 56.7414C306.666 56.9757 308.002 57.0226 310.065 56.882V59.0617C309.596 59.1554 308.963 59.2961 308.166 59.4836C307.416 59.6711 306.619 59.8586 305.775 60.0461C304.932 60.2804 304.065 60.5148 303.174 60.7492C302.33 61.0304 301.58 61.2648 300.924 61.4523C300.455 61.6398 300.01 61.5695 299.588 61.2414C299.213 60.9601 299.025 60.6086 299.025 60.1867V55.6164Z" fill="#504B3A"/>
<path d="M323.649 39.5851C323.602 39.7726 323.555 40.3117 323.508 41.2023C323.508 42.0929 323.555 43.1711 323.649 44.4367C323.836 47.9054 324.821 50.7882 326.602 53.0851C328.383 55.3351 330.774 56.4601 333.774 56.4601C335.883 56.4601 337.735 55.9914 339.329 55.0539C340.969 54.1164 342.422 52.8742 343.688 51.3273L345.938 52.6632C344.485 55.1945 342.61 57.2804 340.313 58.9211C338.016 60.5148 335.391 61.3117 332.438 61.3117C330.329 61.3117 328.36 60.8898 326.532 60.0461C324.75 59.1554 323.204 57.9601 321.891 56.4601C320.532 54.9132 319.477 53.132 318.727 51.1164C318.024 49.0539 317.672 46.8273 317.672 44.4367C317.672 41.4367 318.047 38.7648 318.797 36.4211C319.547 34.0304 320.602 32.0148 321.961 30.3742C323.274 28.7336 324.844 27.4914 326.672 26.6476C328.547 25.757 330.563 25.3117 332.719 25.3117C334.172 25.3117 335.649 25.5695 337.149 26.0851C338.649 26.5539 339.985 27.2804 341.157 28.2648C342.329 29.2492 343.29 30.5148 344.04 32.0617C344.79 33.5617 345.188 35.3429 345.235 37.4054C345.235 37.9211 345.211 38.3195 345.165 38.6007C345.165 38.882 345.094 39.0929 344.954 39.2336C344.86 39.3742 344.672 39.4679 344.391 39.5148C344.11 39.5617 343.735 39.5851 343.266 39.5851H323.649ZM337.5 36.4914C338.063 36.4914 338.438 36.4211 338.625 36.2804C338.86 36.0929 338.977 35.6945 338.977 35.0851C338.977 33.5851 338.391 32.1086 337.219 30.6554C336.047 29.1554 334.454 28.4054 332.438 28.4054C330.047 28.4054 328.149 29.1554 326.743 30.6554C325.336 32.1554 324.446 34.1007 324.071 36.4914H337.5Z" fill="#504B3A"/>
<path d="M357.694 13.7804C357.694 12.6086 357.647 11.6945 357.554 11.0382C357.46 10.3351 357.272 9.81949 356.991 9.49136C356.663 9.16324 356.194 8.97574 355.585 8.92886C354.975 8.83511 354.155 8.78824 353.124 8.78824V6.67886C354.671 6.39761 356.171 5.9523 357.624 5.34293C359.124 4.68668 360.436 3.86636 361.561 2.88199H364.163C364.022 4.14761 363.905 5.5773 363.811 7.17105C363.765 8.71793 363.741 10.0304 363.741 11.1086V52.5929C363.741 54.4679 364.046 55.7804 364.655 56.5304C365.265 57.2336 366.624 57.5851 368.733 57.5851V60.1867C367.749 60.1867 366.53 60.1867 365.077 60.1867C363.624 60.1398 362.147 60.1164 360.647 60.1164C359.147 60.1164 357.694 60.1164 356.288 60.1164C354.882 60.1164 353.733 60.1398 352.843 60.1867V57.5851C354.999 57.5851 356.335 57.2804 356.85 56.6711C357.413 56.0617 357.694 54.7023 357.694 52.5929V13.7804Z" fill="#504B3A"/>
<path fill-rule="evenodd" clip-rule="evenodd" d="M8.81273 11.4357L5.04944 13.6133C1.96014 15.4009 0.0578003 18.6995 0.0578003 22.2687V57.9666C0.0578003 61.5358 1.96014 64.8344 5.04944 66.622L35.8625 84.4516C38.9607 86.2444 42.7809 86.2444 45.8792 84.4517L76.6923 66.622C79.7816 64.8344 81.6839 61.5358 81.6839 57.9666V22.2687C81.6839 18.6995 79.7816 15.4009 76.6923 13.6133L53.4343 0.155365C56.566 7.43186 56.9236 15.7215 53.7758 23.1601C49.0438 34.3424 45.0241 45.6869 41.7015 57.1364C41.3013 58.5154 39.6269 59.0464 38.5383 58.1102C23.965 45.5763 13.8436 29.2218 8.81273 11.4357Z" fill="#0E9F6E"/>
</svg>
