<svg width="302" height="85" viewBox="0 0 302 85" fill="none" xmlns="http://www.w3.org/2000/svg">
<path fill-rule="evenodd" clip-rule="evenodd" d="M49.3462 3.39718C45.53 -0.427639 39.3338 -0.427641 35.5177 3.39717L3.28498 35.7032C-0.519147 39.5159 -0.519149 45.6887 3.28498 49.5014L35.5177 81.8075C36.9929 83.2862 38.824 84.1931 40.7357 84.5286C30.8145 66.7443 30.2192 44.326 41.122 25.3989C41.6022 24.5652 42.8399 24.7787 43.0703 25.7138C45.5883 35.9349 49.9819 45.6846 56.1013 54.4015C59.1621 58.7616 61.2946 63.7505 62.2236 68.9008L81.5788 49.5014C85.3829 45.6887 85.3829 39.5159 81.5788 35.7032L49.3462 3.39718Z" fill="#FFB600"/>
<path d="M120.848 69.008C117.104 69.008 113.792 68.216 110.912 66.632C108.032 65.048 105.776 62.792 104.144 59.864C102.56 56.888 101.768 53.384 101.768 49.352V15.584H110.048V36.968H110.12C110.888 35.672 111.896 34.544 113.144 33.584C114.392 32.624 115.784 31.88 117.32 31.352C118.856 30.824 120.488 30.56 122.216 30.56C125.72 30.56 128.792 31.352 131.432 32.936C134.12 34.472 136.208 36.632 137.696 39.416C139.232 42.2 140 45.464 140 49.208C140 52.136 139.544 54.824 138.632 57.272C137.768 59.672 136.496 61.76 134.816 63.536C133.184 65.312 131.192 66.68 128.84 67.64C126.488 68.552 123.824 69.008 120.848 69.008ZM120.848 61.952C122.96 61.952 124.832 61.448 126.464 60.44C128.096 59.384 129.368 57.944 130.28 56.12C131.192 54.296 131.648 52.184 131.648 49.784C131.648 47.432 131.192 45.344 130.28 43.52C129.368 41.696 128.096 40.256 126.464 39.2C124.88 38.144 123.032 37.616 120.92 37.616C118.808 37.616 116.936 38.144 115.304 39.2C113.672 40.208 112.4 41.624 111.488 43.448C110.576 45.272 110.12 47.384 110.12 49.784C110.12 52.184 110.576 54.296 111.488 56.12C112.4 57.944 113.672 59.384 115.304 60.44C116.936 61.448 118.784 61.952 120.848 61.952ZM151.429 68.144V15.584H159.709V68.144H151.429ZM190.808 69.008C187.256 69.008 184.16 68.312 181.52 66.92C178.88 65.48 176.84 63.512 175.4 61.016C173.96 58.52 173.24 55.712 173.24 52.592V31.424H181.52V52.52C181.52 54.392 181.928 56.048 182.744 57.488C183.608 58.88 184.736 59.984 186.128 60.8C187.568 61.568 189.128 61.952 190.808 61.952C192.488 61.952 194.024 61.568 195.416 60.8C196.856 59.984 197.984 58.88 198.8 57.488C199.664 56.048 200.096 54.392 200.096 52.52V31.424H208.376V52.592C208.376 55.712 207.632 58.52 206.144 61.016C204.704 63.512 202.664 65.48 200.024 66.92C197.432 68.312 194.36 69.008 190.808 69.008ZM221.91 68.144V46.976C221.91 43.808 222.63 41 224.07 38.552C225.51 36.056 227.55 34.112 230.19 32.72C232.83 31.28 235.926 30.56 239.478 30.56C243.03 30.56 246.102 31.28 248.694 32.72C251.334 34.112 253.374 36.056 254.814 38.552C256.254 41 256.974 43.808 256.974 46.976V68.144H248.766V47.048C248.766 45.176 248.334 43.544 247.47 42.152C246.606 40.712 245.454 39.608 244.014 38.84C242.622 38.024 241.086 37.616 239.406 37.616C237.774 37.616 236.238 38.024 234.798 38.84C233.406 39.608 232.278 40.712 231.414 42.152C230.598 43.544 230.19 45.176 230.19 47.048V68.144H221.91ZM270.51 68.144V31.424H278.79V68.144H270.51ZM274.614 26.312C273.174 26.312 271.926 25.784 270.87 24.728C269.814 23.672 269.286 22.424 269.286 20.984C269.286 19.544 269.814 18.296 270.87 17.24C271.926 16.184 273.174 15.656 274.614 15.656C276.102 15.656 277.35 16.184 278.358 17.24C279.414 18.296 279.942 19.544 279.942 20.984C279.942 22.424 279.414 23.672 278.358 24.728C277.35 25.784 276.102 26.312 274.614 26.312Z" fill="#303030"/>
</svg>
