<svg width="363" height="89" viewBox="0 0 363 89" fill="none" xmlns="http://www.w3.org/2000/svg">
<path d="M109.377 71.4212C104.241 71.4212 99.5848 70.3172 95.4088 68.1092C91.2808 65.8532 88.0168 62.7572 85.6168 58.8212C83.2648 54.8372 82.0888 50.3492 82.0888 45.3572C82.0888 40.3652 83.2648 35.9012 85.6168 31.9652C88.0168 27.9812 91.2808 24.8852 95.4088 22.6772C99.5848 20.4212 104.265 19.2932 109.449 19.2932C113.817 19.2932 117.753 20.0612 121.257 21.5972C124.809 23.1332 127.785 25.3412 130.185 28.2212L122.697 35.1332C119.289 31.1972 115.065 29.2292 110.025 29.2292C106.905 29.2292 104.121 29.9252 101.673 31.3172C99.2248 32.6612 97.3048 34.5572 95.9128 37.0052C94.5688 39.4532 93.8968 42.2372 93.8968 45.3572C93.8968 48.4772 94.5688 51.2612 95.9128 53.7092C97.3048 56.1572 99.2248 58.0772 101.673 59.4692C104.121 60.8132 106.905 61.4852 110.025 61.4852C115.065 61.4852 119.289 59.4932 122.697 55.5092L130.185 62.4212C127.785 65.3492 124.809 67.5812 121.257 69.1172C117.705 70.6532 113.745 71.4212 109.377 71.4212ZM157.966 71.1332C153.886 71.1332 150.214 70.2932 146.95 68.6132C143.734 66.8852 141.214 64.5092 139.39 61.4852C137.566 58.4612 136.654 55.0292 136.654 51.1892C136.654 47.3492 137.566 43.9172 139.39 40.8932C141.214 37.8692 143.734 35.5172 146.95 33.8372C150.214 32.1092 153.886 31.2452 157.966 31.2452C162.046 31.2452 165.694 32.1092 168.91 33.8372C172.126 35.5172 174.646 37.8692 176.47 40.8932C178.294 43.9172 179.206 47.3492 179.206 51.1892C179.206 55.0292 178.294 58.4612 176.47 61.4852C174.646 64.5092 172.126 66.8852 168.91 68.6132C165.694 70.2932 162.046 71.1332 157.966 71.1332ZM157.966 61.9172C160.846 61.9172 163.198 60.9572 165.022 59.0372C166.894 57.0692 167.83 54.4532 167.83 51.1892C167.83 47.9252 166.894 45.3332 165.022 43.4132C163.198 41.4452 160.846 40.4612 157.966 40.4612C155.086 40.4612 152.71 41.4452 150.838 43.4132C148.966 45.3332 148.03 47.9252 148.03 51.1892C148.03 54.4532 148.966 57.0692 150.838 59.0372C152.71 60.9572 155.086 61.9172 157.966 61.9172ZM190.313 31.8212H201.545V70.5572H190.313V31.8212ZM195.929 26.4212C193.865 26.4212 192.185 25.8212 190.889 24.6212C189.593 23.4212 188.945 21.9332 188.945 20.1572C188.945 18.3812 189.593 16.8932 190.889 15.6932C192.185 14.4932 193.865 13.8932 195.929 13.8932C197.993 13.8932 199.673 14.4692 200.969 15.6212C202.265 16.7732 202.913 18.2132 202.913 19.9412C202.913 21.8132 202.265 23.3732 200.969 24.6212C199.673 25.8212 197.993 26.4212 195.929 26.4212ZM239.113 31.2452C243.913 31.2452 247.777 32.6852 250.705 35.5652C253.681 38.4452 255.169 42.7172 255.169 48.3812V70.5572H243.937V50.1092C243.937 47.0372 243.265 44.7572 241.921 43.2692C240.577 41.7332 238.633 40.9652 236.089 40.9652C233.257 40.9652 231.001 41.8532 229.321 43.6292C227.641 45.3572 226.801 47.9492 226.801 51.4052V70.5572H215.569V17.1332H226.801V35.8532C228.289 34.3652 230.089 33.2372 232.201 32.4692C234.313 31.6532 236.617 31.2452 239.113 31.2452ZM307.975 31.8212V70.5572H297.319V65.9492C295.831 67.6292 294.055 68.9252 291.991 69.8372C289.927 70.7012 287.695 71.1332 285.295 71.1332C280.207 71.1332 276.175 69.6692 273.199 66.7412C270.223 63.8132 268.735 59.4692 268.735 53.7092V31.8212H279.967V52.0532C279.967 58.2932 282.583 61.4132 287.815 61.4132C290.503 61.4132 292.663 60.5492 294.295 58.8212C295.927 57.0452 296.743 54.4292 296.743 50.9732V31.8212H307.975ZM341.492 62.1332C343.508 62.1332 345.284 61.8452 346.82 61.2692C348.404 60.6452 349.868 59.6852 351.212 58.3892L357.188 64.8692C353.54 69.0452 348.212 71.1332 341.204 71.1332C336.836 71.1332 332.972 70.2932 329.612 68.6132C326.252 66.8852 323.66 64.5092 321.836 61.4852C320.012 58.4612 319.1 55.0292 319.1 51.1892C319.1 47.3972 319.988 43.9892 321.764 40.9652C323.588 37.8932 326.06 35.5172 329.18 33.8372C332.348 32.1092 335.9 31.2452 339.836 31.2452C343.532 31.2452 346.892 32.0372 349.916 33.6212C352.94 35.1572 355.34 37.4132 357.116 40.3892C358.94 43.3172 359.852 46.7972 359.852 50.8292L331.196 56.3732C332.012 58.2932 333.284 59.7332 335.012 60.6932C336.788 61.6532 338.948 62.1332 341.492 62.1332ZM339.836 39.7412C337.004 39.7412 334.7 40.6532 332.924 42.4772C331.148 44.3012 330.212 46.8212 330.116 50.0372L348.98 46.3652C348.452 44.3492 347.372 42.7412 345.74 41.5412C344.108 40.3412 342.14 39.7412 339.836 39.7412Z" fill="#272727"/>
<path fill-rule="evenodd" clip-rule="evenodd" d="M70.0972 45.0621C55.4613 45.0585 40.8264 39.4733 29.6596 28.3065C25.0929 23.7398 21.4597 18.5932 18.76 13.1036C23.6403 10.5202 29.205 9.05722 35.1113 9.05722C54.4413 9.05722 70.1113 24.7273 70.1113 44.0572C70.1113 44.3933 70.1066 44.7283 70.0972 45.0621ZM66.7776 58.9845C49.6807 58.1882 32.8161 51.262 19.7601 38.206C14.9051 33.3509 10.8976 27.9692 7.73787 22.2447C2.96455 28.227 0.111326 35.8089 0.111327 44.0572C0.111327 63.3872 15.7814 79.0572 35.1113 79.0572C49.1019 79.0572 61.1752 70.8484 66.7776 58.9845Z" fill="#FF834E"/>
</svg>
