<svg width="24" height="24" viewBox="0 0 24 24" fill="none" xmlns="http://www.w3.org/2000/svg">
<rect width="24" height="24" fill="white"/>
<path fill-rule="evenodd" clip-rule="evenodd" d="M13.7361 2.17433C12.7779 1.21394 11.2221 1.21394 10.2639 2.17433L2.17047 10.2862C1.21527 11.2435 1.21527 12.7935 2.17047 13.7508L10.2639 21.8627C10.6343 22.234 11.0941 22.4617 11.5741 22.5459C9.08296 18.0804 8.93348 12.4513 11.6711 7.69882C11.7917 7.48949 12.1024 7.5431 12.1603 7.77789C12.7926 10.3443 13.8958 12.7924 15.4323 14.9812C16.2008 16.076 16.7363 17.3287 16.9696 18.6219L21.8295 13.7508C22.7847 12.7935 22.7847 11.2435 21.8295 10.2862L13.7361 2.17433Z" fill="#FFB600"/>
</svg>
